PathFileType	4	(x/y/z)	S02_SL_Cal_T01
DataRate	CameraRate	NumFrames	NumMarkers	Units	OrigDataRate	OrigDataStartFrame	OrigNumFrames
240	240	5	51	mm	240	1	2400
Frame#	Time	Sternum			R.Acromium			L.Acromium			Top.Head			R.ASIS			L.ASIS			R.PSIS			L.PSIS			R.Great.Tro			L.Great.Tro			R.Iliac.Crest			L.Iliac.Crest			V.Sacral			R.Thigh.Upper.Post			R.Thigh.Lower.Ant			R.Thigh.Lower.Post			R.Thigh.Upper.Ant			R.Knee.Lat			R.Knee.Med			R.Shank.Upper.Post			R.Shank.Lower.Ant			R.Shank.Lower.Post			R.Shank.Upper.Ant			R.Ankle.Lat			R.Ankle.Med			R.Heel.Upper			R.Heel.Med			R.Heel.Lat			R.Toe.Lat			R.Toe.Med			R.Toe.Tip			L.Thigh.Upper.Post			L.Thigh.Lower.Ant			L.Thigh.Lower.Post			L.Thigh.Upper.Ant			L.Knee.Lat			L.Knee.Med			L.Shank.Upper.Post			L.Shank.Lower.Ant			L.Shank.Lower.Post			L.Shank.Upper.Ant			L.Ankle.Lat			L.Ankle.Med			L.Heel.Upper			L.Heel.Med			L.Heel.Lat			L.Toe.Lat			L.Toe.Med			L.Toe.Tip			Cervical.Spine			Back			
		X1	Y1	Z1	X2	Y2	Z2	X3	Y3	Z3	X4	Y4	Z4	X5	Y5	Z5	X6	Y6	Z6	X7	Y7	Z7	X8	Y8	Z8	X9	Y9	Z9	X10	Y10	Z10	X11	Y11	Z11	X12	Y12	Z12	X13	Y13	Z13	X14	Y14	Z14	X15	Y15	Z15	X16	Y16	Z16	X17	Y17	Z17	X18	Y18	Z18	X19	Y19	Z19	X20	Y20	Z20	X21	Y21	Z21	X22	Y22	Z22	X23	Y23	Z23	X24	Y24	Z24	X25	Y25	Z25	X26	Y26	Z26	X27	Y27	Z27	X28	Y28	Z28	X29	Y29	Z29	X30	Y30	Z30	X31	Y31	Z31	X32	Y32	Z32	X33	Y33	Z33	X34	Y34	Z34	X35	Y35	Z35	X36	Y36	Z36	X37	Y37	Z37	X38	Y38	Z38	X39	Y39	Z39	X40	Y40	Z40	X41	Y41	Z41	X42	Y42	Z42	X43	Y43	Z43	X44	Y44	Z44	X45	Y45	Z45	X46	Y46	Z46	X47	Y47	Z47	X48	Y48	Z48	X49	Y49	Z49	X50	Y50	Z50	X51	Y51	Z51	

1	0	653.22	1124.3	305.24	526.16	1355	442.17	526.07	1349.1	145.57	569.42	1641.7	291.61	619.7	937.7	414.77	637.1	922.96	201.07	407.94	972.69	343.31	408.65	970.99	268.18	530.94	834.24	504.93	507.6	840.37	108.47	516.12	989.54	464.69	519.55	972.71	129.68	381.88	923.76	300.81	525.32	630.62	501.81	570.46	543.32	471.65	498.51	544.42	488.59	591.19	630.1	480.88	506.16	464.51	477.06	495.93	439.01	334.94	421.95	259.76	475.52	498.08	180.1	469.24	431.04	187.53	474.27	494.6	249.47	481.11	453.06	90.472	468.03	469.29	97.685	385.16	398.9	73.188	408.52	415.9	41.449	383.02	398.15	42.612	444.73	553.17	41.136	508.2	599.45	35.194	405.31	639.43	63.369	467.26	458.23	625.61	121.32	523.05	536.52	118.56	445.29	536.12	135.47	528.3	630.85	105.27	495.55	460.25	123.68	491.26	444.42	263.78	411.95	290.48	115.11	488.33	208.32	115.03	416.64	216.36	125.65	476.6	284.13	106.17	459.77	100.27	121.82	478.11	92.537	201.55	404.62	65.925	159.74	418.03	39.958	191.66	407.06	38.57	130.89	568.04	36.928	79.368	603.5	46.508	184.66	656.58	64.475	130.96	448.71	1405.4	292.61	387.97	1153.5	302.63
2	0.0041667	653.21	1124.3	305.25	526.15	1355	442.18	526.05	1349	145.59	569.37	1641.7	291.6	619.67	937.66	414.69	636.98	922.96	201.03	407.93	972.66	343.29	408.64	970.98	268.18	530.95	834.25	504.92	507.59	840.37	108.47	516.09	989.5	464.67	519.56	972.77	129.72	381.87	923.76	300.81	525.33	630.63	501.83	570.41	543.33	471.64	498.52	544.41	488.61	591.19	630.11	480.86	506.16	464.5	477.05	495.94	439.01	334.93	421.96	259.77	475.56	497.99	180.08	469.2	431.05	187.47	474.09	494.56	249.47	481.08	453.08	90.468	468.01	469.26	97.686	385.18	398.88	73.202	408.51	415.89	41.447	383.03	398.15	42.611	444.73	553.17	41.139	508.2	599.44	35.181	405.31	639.44	63.361	467.26	458.24	625.61	121.32	523.06	536.49	118.64	445.34	536.12	135.49	528.3	630.85	105.29	495.55	460.24	123.73	491.19	444.39	263.81	411.95	290.48	115.15	488.33	208.32	115.03	416.65	216.39	125.62	476.57	284.08	106.22	459.57	100.31	121.74	478.12	92.527	201.57	404.6	65.934	159.74	418.03	39.961	191.67	407.13	38.559	130.9	568.05	36.923	79.378	603.51	46.52	184.66	656.58	64.466	130.96	448.68	1405.4	292.63	387.96	1153.5	302.64
3	0.0083333	653.21	1124.3	305.25	526.13	1355	442.19	526.02	1349	145.61	569.32	1641.7	291.58	619.65	937.63	414.61	636.88	922.95	200.98	407.93	972.63	343.27	408.64	970.96	268.17	530.96	834.26	504.92	507.58	840.37	108.47	516.07	989.46	464.65	519.56	972.82	129.76	381.86	923.76	300.81	525.34	630.63	501.84	570.36	543.34	471.63	498.53	544.41	488.62	591.2	630.13	480.84	506.17	464.49	477.05	495.95	439.01	334.93	421.96	259.78	475.6	497.89	180.05	469.16	431.05	187.42	473.91	494.53	249.47	481.04	453.1	90.464	468	469.23	97.688	385.19	398.87	73.216	408.5	415.87	41.445	383.03	398.15	42.609	444.74	553.18	41.141	508.21	599.43	35.169	405.32	639.45	63.354	467.26	458.25	625.61	121.32	523.08	536.47	118.72	445.38	536.12	135.51	528.31	630.85	105.31	495.55	460.22	123.77	491.13	444.36	263.84	411.95	290.48	115.2	488.33	208.33	115.02	416.66	216.42	125.59	476.54	284.04	106.27	459.37	100.35	121.67	478.13	92.516	201.58	404.58	65.942	159.74	418.03	39.964	191.68	407.2	38.549	130.9	568.07	36.918	79.387	603.52	46.53	184.65	656.58	64.458	130.96	448.66	1405.3	292.66	387.95	1153.4	302.65
4	0.0125	653.2	1124.3	305.26	526.11	1355	442.21	525.99	1349	145.62	569.28	1641.7	291.57	619.63	937.6	414.53	636.77	922.94	200.94	407.93	972.6	343.25	408.63	970.95	268.16	530.97	834.27	504.91	507.58	840.37	108.46	516.04	989.43	464.63	519.56	972.88	129.79	381.86	923.75	300.81	525.35	630.63	501.86	570.31	543.35	471.62	498.54	544.41	488.64	591.21	630.14	480.82	506.17	464.49	477.04	495.96	439	334.93	421.97	259.79	475.63	497.8	180.03	469.13	431.05	187.36	473.74	494.5	249.47	481.01	453.12	90.459	467.98	469.2	97.689	385.2	398.85	73.231	408.49	415.86	41.443	383.04	398.14	42.608	444.75	553.18	41.142	508.22	599.43	35.158	405.33	639.45	63.347	467.26	458.26	625.61	121.32	523.09	536.44	118.8	445.42	536.12	135.54	528.32	630.85	105.32	495.54	460.2	123.81	491.06	444.34	263.87	411.95	290.48	115.23	488.33	208.33	115.02	416.67	216.45	125.55	476.52	283.99	106.32	459.18	100.39	121.61	478.14	92.507	201.59	404.57	65.95	159.74	418.02	39.967	191.69	407.27	38.539	130.91	568.08	36.914	79.395	603.52	46.539	184.65	656.58	64.451	130.95	448.63	1405.3	292.68	387.94	1153.4	302.66
5	0.016667	653.19	1124.3	305.26	526.09	1354.9	442.22	525.96	1348.9	145.64	569.23	1641.7	291.56	619.61	937.57	414.45	636.67	922.94	200.9	407.92	972.57	343.24	408.63	970.93	268.15	530.98	834.28	504.9	507.57	840.38	108.46	516.02	989.4	464.61	519.56	972.93	129.83	381.85	923.75	300.81	525.37	630.63	501.87	570.26	543.36	471.61	498.55	544.41	488.65	591.22	630.15	480.8	506.18	464.48	477.03	495.97	439	334.92	421.97	259.79	475.67	497.71	180.01	469.09	431.05	187.31	473.58	494.47	249.47	480.97	453.14	90.456	467.97	469.18	97.69	385.21	398.84	73.245	408.49	415.85	41.441	383.04	398.14	42.607	444.75	553.18	41.142	508.22	599.42	35.147	405.34	639.46	63.341	467.27	458.26	625.61	121.32	523.1	536.41	118.86	445.46	536.13	135.56	528.33	630.85	105.34	495.54	460.18	123.84	491.01	444.31	263.9	411.95	290.48	115.27	488.33	208.33	115.02	416.68	216.49	125.53	476.49	283.95	106.37	459	100.43	121.54	478.15	92.498	201.6	404.55	65.957	159.74	418.02	39.97	191.7	407.33	38.529	130.91	568.09	36.909	79.403	603.53	46.545	184.65	656.58	64.444	130.95	448.6	1405.3	292.71	387.92	1153.4	302.67
